<svg
  xmlns="http://www.w3.org/2000/svg"
  width="24"
  height="24"
  viewBox="0 0 24 24"
  fill="none"
>
  <path
    d="M12 14C13.6569 14 15 12.6569 15 11V5C15 3.34315 13.6569 2 12 2C10.3431 2 9 3.34315 9 5V11C9 12.6569 10.3431 14 12 14Z"
    stroke="#333"
    stroke-width="2"
    stroke-linecap="round"
    stroke-linejoin="round"
  />
  <path
    d="M19 11V10C19 6.68629 16.3137 4 13 4H11C7.68629 4 5 6.68629 5 10V11C5 14.3137 7.68629 17 11 17H13C16.3137 17 19 14.3137 19 11Z"
    stroke="none"
    fill="none"
  />
  <path
    d="M19 11C19 14.3137 16.3137 17 13 17H11C7.68629 17 5 14.3137 5 11"
    stroke="#333"
    stroke-width="2"
    stroke-linecap="round"
  />
  <line
    x1="12"
    y1="17"
    x2="12"
    y2="22"
    stroke="#333"
    stroke-width="2"
    stroke-linecap="round"
  />
  <line
    x1="9"
    y1="22"
    x2="15"
    y2="22"
    stroke="#333"
    stroke-width="2"
    stroke-linecap="round"
  />
</svg>