<svg xmlns="http://www.w3.org/2000/svg"
     width="48"
     height="48"
     viewBox="0 0 61 62"
     fill="none">
  <path
    fill="currentColor"
    d="M60.422 31.078c0 .922-.383 1.766-1.149 2.531-.765.766-1.796 1.383-3.093 1.852-1.282.469-2.711.703-4.29.703h-9.75c-.656 0-1.156.078-1.5.234-.328.141-.687.43-1.078.868l-16.007 17.18c-.532.562-1.14.843-1.828.843h-3.188c-.312 0-.547-.117-.703-.352-.14-.234-.133-.515.023-.843l8.297-17.907-12.093-1.359-4.313 7.617c-.328.547-.867.82-1.617.82H7.055c-.313 0-.57-.093-.774-.28a1.048 1.048 0 0 1-.304-.774V19.945c0-.328.101-.586.304-.773.203-.203.461-.305.774-.305h1.078c.75 0 1.289.281 1.617.844l4.313 7.617 12.093-1.36L17.86 8.064c-.156-.329-.164-.61-.023-.844.156-.235.39-.352.703-.352h3.188c.687 0 1.296.281 1.828.844l16.008 17.156c.39.438.75.735 1.078.89.343.157.843.235 1.5.235h9.75c1.578 0 3.007.235 4.289.703 1.297.453 2.328 1.07 3.093 1.852.766.765 1.149 1.61 1.149 2.531Z"
  />
</svg>
