<svg class="inline-block shrink-0 align-middle text-[40px] md:text-[48px] xl:text-[58px]" width="1.4em" height="1em" viewBox="0 0 51 30" fill="none" xmlns="http://www.w3.org/2000/svg"><path d="M12.6758 29.5554C12.3112 29.5554 11.9967 29.4233 11.7324 29.1589C11.4681 28.8946 11.3359 28.5802 11.3359 28.2156C11.3359 27.851 11.4681 27.5365 11.7324 27.2722C11.9967 27.0079 12.3112 26.8757 12.6758 26.8757H12.7305V24.5378H4.08984C2.95964 24.5378 2.07552 24.2188 1.4375 23.5808C0.799479 22.9428 0.480469 22.0587 0.480469 20.9285V4.39917C0.480469 3.26896 0.799479 2.38485 1.4375 1.74683C2.07552 1.10881 2.95964 0.789795 4.08984 0.789795H30.4902C31.6296 0.789795 32.5182 1.10881 33.1562 1.74683C33.7943 2.38485 34.1133 3.26896 34.1133 4.39917V9.67651H31.1738V4.64526C31.1738 4.36271 31.0918 4.1394 30.9277 3.97534C30.7637 3.81128 30.5404 3.72925 30.2578 3.72925H4.33594C4.05339 3.72925 3.83008 3.81128 3.66602 3.97534C3.50195 4.1394 3.41992 4.36271 3.41992 4.64526V17.4285C3.41992 17.8022 3.60677 17.989 3.98047 17.989H20.7148V24.8796H20.4824C19.8717 24.8796 19.3112 25.03 18.8008 25.3308C18.2995 25.6407 17.8984 26.0463 17.5977 26.5476C17.306 27.0489 17.1602 27.6003 17.1602 28.2019C17.1602 28.685 17.2559 29.1361 17.4473 29.5554H12.6758ZM19.1426 28.2019C19.1426 27.8464 19.2747 27.5365 19.5391 27.2722C19.8034 27.0079 20.1178 26.8757 20.4824 26.8757H22.7109V15.1863C22.7109 14.0561 23.0254 13.1902 23.6543 12.5886C24.2832 11.9779 25.1491 11.6726 26.252 11.6726H43.4375C44.5677 11.6726 45.4382 11.9779 46.0488 12.5886C46.6686 13.1902 46.9785 14.0561 46.9785 15.1863V26.8621H49.166C49.5397 26.8621 49.8542 26.9942 50.1094 27.2585C50.3737 27.5229 50.5059 27.8373 50.5059 28.2019C50.5059 28.5574 50.3737 28.8673 50.1094 29.1316C49.8542 29.405 49.5397 29.5417 49.166 29.5417L20.4824 29.5554C20.1178 29.5554 19.8034 29.4187 19.5391 29.1453C19.2747 28.8809 19.1426 28.5665 19.1426 28.2019ZM25.6504 26.8757L44.0254 26.8621V15.8562C44.0254 15.4369 43.9206 15.127 43.7109 14.9265C43.5104 14.7169 43.2005 14.6121 42.7812 14.6121H26.8945C26.4753 14.6121 26.1608 14.7169 25.9512 14.9265C25.7507 15.127 25.6504 15.4369 25.6504 15.8562V26.8757Z" fill="currentColor"></path></svg>